<?xml version="1.0" encoding="utf-8"?>
<!-- Generator: Adobe Illustrator 26.0.1, SVG Export Plug-In . SVG Version: 6.00 Build 0)  -->
<svg version="1.1" id="Layer_1" xmlns="http://www.w3.org/2000/svg" xmlns:xlink="http://www.w3.org/1999/xlink" x="0px" y="0px"
	 viewBox="0 0 520 430" style="enable-background:new 0 0 520 430;" xml:space="preserve">
<style type="text/css">
	.st0{fill:#FFFFFF;}
</style>
<path class="st0" d="M386.1,412.8H125.9c-32.7,0-59.1-26.5-59.1-59.1V93.5c0-32.7,26.5-59.1,59.1-59.1h260.2
	c32.7,0,59.1,26.5,59.1,59.1v260.2C445.2,386.4,418.7,412.8,386.1,412.8z"/>
<g>
	<g>
		<g>
			<path d="M349.2,73.5c-1.3-3.8,3.5-8.8,7.2-6.1c2,4.4-1.3,9.1,0,13.6c1.4,6.6,1.8,13.3,2.5,19.9c3.5-5.6,5.9-11.7,9.1-17.5
				c1.1-4.6,2.7-13.4,9.5-10.1c0.3,4.9-4.1,8.1-5.3,12.6c-2.6,8.1-5.7,16.1-6.1,24.7c-0.8,11.3-2.3,22.7-1.1,34.1
				c0.6,4.7-3.7,7.8-7.8,8.5c-8.4,2.4-17.4,4.4-24.5,9.8c-5.3,5.9-2.1,14.4-2.5,21.5c-0.1,19.2-12,35.3-20,51.9
				c-2,4.7-5.8,9.3-4.9,14.6c3.3,2.6,7.5,3.5,11.3,4.9c13.9,4.3,27.4,9.6,40.6,15.9c3.7,1.8,7.3,4.2,9.4,7.9c1.3,3.3,1.1,7.4-1,10.4
				c-3.4,5.5-9,8.9-13.9,12.9c-12.3,9.8-24.3,20-37.9,28c-4.4,2.6-9.3,4.6-13.1,8c8.4,2,17.3,1.2,25.6-0.7c12.7-2.2,23.6-11.1,30-22
				c1.9-0.7,3.5,0.4,4.1,2.3c-0.4,3.3-2.7,7.4,0.3,10.1c1.9,2.4,4.8,0.3,6.5-1.2c5-5.1,10.8-10,12.6-17.2c0.8-3.9,7.6-4.5,8.6-0.3
				c1.7,4.3-3.1,6.7-5.2,9.7c-2,3.5-4,7-4.9,10.9c0,3.5,4.2,5.1,7.1,5.5c8.3,0.6,16.6,1.8,24.9,1.9c4.5,0.5,2.6,8-1.6,6.7
				c-6.8-1.6-13.7-0.1-20.6-0.6c-4.3-0.3-10.1,0.9-11.5,5.7c-1.1,6.6,3.9,11.8,6.1,17.5c1.3,4,6.7,6.1,5.9,10.8
				c-0.5,3.3-5.9,3.3-6.7,0.1c-2.1-6.2-6.8-10.8-11.7-14.9c-6.6-5.3-15.3-6.5-23.4-7.9c-10.9-1.5-21.6-3.7-32.4-5.5
				c-9.6-1.6-20-0.7-28.9-5.1c-4-2.1-3.2-7.3-1.2-10.6c6-10.8,15.8-18.6,24.7-26.8c5.9-5.5,12-10.9,18.2-16
				c-13.1-0.5-25.7-4.4-37.3-10.3c-5.7-2.2-10.4-5.9-14.9-9.8c-6.8,0.9-13.7,0-20.4-1.8c-10.3-2.7-21.5-4.8-29.5-12.4
				c3.1,12,5.1,24.3,5.3,36.6c-0.1,5.3-2.9,10.7-8,12.6c-6.5,2.7-13.4,0-19.7-1.9c-8.1-2.3-16.1-5.2-23.9-8.5
				c-13.8-5.8-28.4-9.1-43.1-11.6c-10.1-1.6-20.1-3.5-30.3-3.6c-4.2-1-3.2-6.7,0.8-7.2c4.5,0.6,8.8,3.2,13.5,2.8
				c3.4,0.4,5.2-3,7-5.2c-5.3-3.7-12.1-4-17.9-6.9c-3.3-1.9-9.8,0.6-9.9-4.7c0.3-1,0.9-2.9,1.2-3.9c8.4,2.7,17.1,3.6,25.6,6
				c3.3,0.7,8.8,0.6,9.5-3.6c-0.1-5.7-0.9-11.5-3.9-16.5c-2.4-3.5,2-9.8,6-6.9c4.5,2.4,1.4,8.4,3.6,12.2c2.8,5.7,4.5,12.5,9.9,16.4
				c1.9-1.3,3.6-2.8,4.8-4.7c-0.4-3.2-0.7-8.4,4-7.7c1.9,2.5,1.8,5.9,3,8.7c3.9,10.9,13.1,19,23.3,23.8c8.1,3.7,16.3,7.5,24.9,9.9
				c-4.1-8.8-7.5-17.8-11.5-26.5c-4.6-10.7-6.5-22.3-8.6-33.6c-0.9-4.4-0.7-10,3.4-12.7c4.1-2.5,9.3-1.8,13.9-1.2
				c9.4,1.8,18.9,3.2,27.9,6.6c7.4,2.7,13.9,7.5,21.5,9.7c-0.8-3.3-2-6.6-3.3-9.7c-6.5-15.9-7.1-33.7-4-50.4
				c-5.5-2.7-11.3-4.8-17-7.1c-2.6-1-4.8-3.3-5.1-6.3c-1.3-9.5,0.4-19,1-28.5c-0.6-5.4-5.8-8-9.7-10.9c-4.7-3.1-8.9-7-14.4-8.7
				c-2.4-0.8-5.7-1.8-5.2-5c1.8-3.4,6-2.3,8.4-0.1c5.5,4.9,12.6,7.3,19.1,10.4c3.3,1.8,8.5-0.2,8.5-4.3c0.7-6.4,1.6-12.8,2.7-19.1
				c1-4.3-3.1-9,0.5-12.7c3.8-1.3,7.6,3.1,6.5,6.7c-2.2,7.7-3,15.9-2.7,23.9c0.4,0.7,1.3,2.2,1.8,2.9c2.8-3.6,6.3-7.1,7.1-11.7
				c0.8-2.4,0.5-6.2,3.7-6.9c3.5-1.3,6.4,3.7,4.1,6.4c-4.5,5.9-7.5,12.6-11.3,18.9c4.2-0.2,8.2-1.3,12.3-2.1
				c3.9-10.9,10.1-20.9,16.1-30.7c4.3-6.4,10.3-13.5,18.7-13.5c6.9-0.3,12.6,4.5,16.7,9.5c8,10.3,12.4,23,14.3,35.7
				c1,6.2,0,14.6,5.8,18.6c6.8,0,13.4-1.5,20-3c-0.6-8.7,3-19-3.2-26.4c-4.7-0.7-9.4-0.5-14,0.9c-4.5,1.3-5.9-7.3-1.4-7.5
				c4.3,0.2,8.4,1.8,12.7,1.7c-3.6-6.3-6.8-12.8-11.1-18.5c-2.6-2.7,0.5-8.2,4.2-6.5c2.6,0.3,2.5,3.4,3.1,5.3
				c0.7,5.3,4.7,9.1,7.8,13.2c1.3-1.7,1.8-3.7,1.5-5.8C351.6,87.4,351.3,80.3,349.2,73.5z M240.2,155.3c4.3,0.8,8.8,0.9,13.2,1
				c1.5-9.1,4.9-17.7,6.1-26.8c-4.2-1.8-8.7-2-13.1-1.3C242.9,136.7,240.2,145.9,240.2,155.3z"/>
		</g>
	</g>
</g>
</svg>
