<?xml version="1.0" encoding="utf-8"?>
<!-- Generator: Adobe Illustrator 26.0.1, SVG Export Plug-In . SVG Version: 6.00 Build 0)  -->
<svg version="1.1" id="Layer_1" xmlns="http://www.w3.org/2000/svg" xmlns:xlink="http://www.w3.org/1999/xlink" x="0px" y="0px"
	 viewBox="0 0 520 430" style="enable-background:new 0 0 520 430;" xml:space="preserve">
<style type="text/css">
	.st0{fill:#FFFFFF;}
</style>
<path class="st0" d="M386.1,412.8H125.9c-32.7,0-59.1-26.5-59.1-59.1V93.5c0-32.7,26.5-59.1,59.1-59.1h260.2
	c32.7,0,59.1,26.5,59.1,59.1v260.2C445.2,386.4,418.7,412.8,386.1,412.8z"/>
<g>
	<g>
		<g>
			<path d="M194.6,71.4c6.7-5.7,12.7-14.5,23.3-11.7c10.7,3.5,19.4,11.6,26.2,20.4c-1.8-0.3-3.7-0.5-5.5-0.8c1.9,4,3.8,8,5.5,12.1
				c-0.9-0.8-1.7-1.7-2.6-2.5c-0.1,21.4-24.2,32.3-25.8,53.3c-2.4,9.2,2.6,22.4,14.4,18.8c13.7-1,25.7,6.3,37.5,12
				c13.4,6.8,27.3,13.7,37.8,24.7c9,8.5,14.6,19.7,21.6,29.7c10.1,15.1,22.8,28.5,30.3,45.2c-3.9-4.3-7.5-8.8-11.3-13.1
				c3.4,8.3,6.7,16.8,8.6,25.6c-2.3-1-4.6-2-6.9-2.9c0.7,6.3,1.2,12.6,1.7,18.8c-12.6-10.7-25.5-21.2-40.4-28.5
				c-9.8-4.5-20.5-4.3-31-4.5c0.1,6-0.7,12.2,0.1,18.2c1.4,8,6.5,14.8,7.6,22.8c-2.2,19.7-6.7,39.4-5.4,59.4
				c-0.9,6.4,2.6,11.6,5.6,16.7c-11.9,0-23.8,5.3-35.5,1.3c-12.6-1.5-25.6,3.5-38.1-0.3c9.8-3.6,21.8-0.2,29.9-7.7
				c7.3-23.6,10.7-48.4,13-73c1.6-17.3-7.8-32.4-15.9-46.7c-5.8-6.3-13.2-11.1-19.1-17.5c-9.5-9.4-11.1-23-16.1-34.8
				c-0.4,1.4-1.1,4.2-1.5,5.6c-4.4-16.9-10.3-33.8-10.1-51.5c1.3-15.4,6-30.9,16.2-42.9c4.6-6.9,11.7-12.3,15-20.1
				c1.9-6.6-5.8-11.8-11.7-11.9c-18.7-6.9-38.3,0.1-57.4,0.5C167.3,79.4,181.9,77.7,194.6,71.4z M260.9,271.5
				c-4.5,14.3,2.4,28.5,1.6,42.9c-4.6,18.9-11.1,37.7-12.6,57.2c-2.8,5.3,2,12.2,7.5,11.4c6.5-0.7,15.9-1,17-9.1
				c4-22.5,0.8-45.5,2.5-68.2C277.4,292.4,269.3,281.1,260.9,271.5z"/>
		</g>
	</g>
</g>
</svg>
