<?xml version="1.0" encoding="utf-8"?>
<!-- Generator: Adobe Illustrator 26.0.1, SVG Export Plug-In . SVG Version: 6.00 Build 0)  -->
<svg version="1.1" id="Layer_1" xmlns="http://www.w3.org/2000/svg" xmlns:xlink="http://www.w3.org/1999/xlink" x="0px" y="0px"
	 viewBox="0 0 520 430" style="enable-background:new 0 0 520 430;" xml:space="preserve">
<style type="text/css">
	.st0{fill:#FFFFFF;}
</style>
<path class="st0" d="M386.1,412.8H125.9c-32.7,0-59.1-26.5-59.1-59.1V93.5c0-32.7,26.5-59.1,59.1-59.1h260.2
	c32.7,0,59.1,26.5,59.1,59.1v260.2C445.2,386.4,418.7,412.8,386.1,412.8z"/>
<g>
	<g>
		<path d="M278.6,160.7c2.4-1.1,5-2,7.6-2.6c-1.4,0.3-3.3,8.1-3.7,9.4c-1,3.4-1.6,6.9-2,10.4c-0.6,7.1,0.3,13.6,3.7,20
			c1.2,2.1,2.6,4.2,4.9,5.2c2.1,0.8,4.3,1.3,6.4,2c18.8,5.5,37.6,11,56.6,15.9c1.2,0.2,2.5,0.8,3.8,0.6c2.8-1.6,5-4.9,8.6-4.2
			c-0.2,1.4-1.9,2-1.8,3.6c0.1,1.4-0.3,3.6,1.3,4.3c4.8,2.1,10,2.8,15.1,3.3c2.4,0.1,5.2,0.4,7.1-1.4c5.1-4.6,9.5-10.1,13.9-15.4
			c6.1-7.4,12-15,18.3-22.2c1.7-1.8,3.3-3.7,5.2-5.2c0.6-0.5,1.4-0.8,2.1-1c0.9,3-0.8,6-2.1,8.7c0.3,0.5,1,0.9,0.9,1.6
			c-0.9,1-2.4,0.9-3.4,1.6c-0.3,0.4-0.5,0.9-0.7,1.4c-1.5,4.5-2.6,9.1-3.9,13.7c-1.8,5.7-3.8,11.3-5.3,17.1
			c-0.6,2.9,0.3,5.8,0.8,8.7c1.7,8,3.9,15.8,6.3,23.6c0.5,1.9,1.8,3.4,2.6,5.2c-0.9,1.5-2.9,1.6-4.4,1.3c-2.3-0.5-4.6-1.4-6.5-2.8
			c-6.9-6-12.5-13.3-17.5-21c-0.8-1.2-1.8-2.5-3.3-2.7c-2.2,0.2-4.4,0.8-6.6,1c-16.7,0.2-33.2,4.4-48.5,11.1c2.1,3,4.9,5.6,6.6,8.9
			c0.3,0.6,0.3,1.3,0.4,2c-1.5,0.5-2.9-0.2-4.3-0.5c-5.9-1.7-11.7-3.9-17.5-6c-0.9,2.1-1.2,4.3-1.6,6.6c-2.9-0.1-5.4-2-6.7-4.6
			c-11.4,2.7-23,4.4-34.6,6c-3.5,0.4-7.1,1-10.6,1c0.6,2.2,0.7,4.5,1.4,6.6c0.8,2,2.4,3.5,3.1,5.5c0.5,2.7,0.5,5.6,1.2,8.3
			c0.3,1.1,1,2.1,1.1,3.3c-2.7,0.5-5.4-0.4-7.9-1.3c-11.2-4.2-21.4-10.5-31.8-16.4c-0.5,2.9-1.8,5.7-1.7,8.7
			c-7-0.5-12.7-5.1-18.2-9.1c-0.5-0.4-1.1-0.3-1.7-0.3c-2.8,0.1-5.5-0.3-8.2-0.6c-11.6-1.6-23.2-3.6-34.9-4
			c-6.5-0.6-13.1-0.2-19.7-0.4c-6.3-0.4-12.6-0.8-18.6-2.8c-3.2-1.1-6-3.2-8.2-5.8c-0.8-1.6,1.2-2.5,2.2-3.2
			c1.3-0.7,1.2-2.4,1.7-3.6c1.8,0.3,2.9-1.3,4.3-2c0.3,0.3,0.6,0.7,0.9,1c0.8-0.8,2-1,2.5-2.1c0.4,0.2,0.8,0.3,1.1,0.5
			c0.8-0.8,1.8-1.5,2.7-2.3c0.5,0.4,0.9,0.7,1.4,1c0.1-0.6,0.1-1.3,0.2-1.9c0.5,0.3,1,0.6,1.6,0.9c0.4-1.3,2.1-1.2,2.6-2.5
			c-2-1-4.2-1.3-6.2-2.1c-0.4,0.4-0.7,0.8-1.1,1.3c-0.6-0.6-1.2-1.1-1.8-1.6c-0.1,0.4-0.2,1.3-0.2,1.7c-1.3,0-2-1.2-2.9-1.9
			c0,0.9,0,1.9-0.1,2.8c-0.9-0.3-1.6-0.9-2.4-1.4c0,0.4-0.1,1.2-0.2,1.6c-0.8-0.6-1.5-1.2-2.2-1.8c-0.1,0.3-0.4,1-0.6,1.3
			c-0.9-0.6-1.7-1.3-2.7-1.6c0.1,0.8,0.3,1.6,0.6,2.4c-0.5,0.4-1,0.8-1.5,1.3c-1.9-0.7-2.6-2.6-3.8-4c-2.3-1.5-5-2.3-7.6-3.3
			c-6.5-2.2-13-4.4-19.1-7.8c-1.7-0.9-3.2-2.1-4.4-3.6c-0.6-0.7-0.6-1.8,0-2.5c1.2-1.3,2.9-1.9,4.5-2.6c18.8-7.8,39.2-12,59.1-15.5
			c10-1.8,20-3.4,30-4.9c14.2-2.2,28.7-4.2,43-2.7c4.1,0.4,8.2,1.1,12.2,0.4c6.2-1.1,11.5-5.4,15.5-10.3c4.1-4.9,7.3-10.4,11.5-15.1
			C266.9,167.6,272.4,163.5,278.6,160.7z"/>
	</g>
</g>
</svg>
